<svg fill="none" height="84" viewBox="0 0 84 84" width="84" xmlns="http://www.w3.org/2000/svg" xmlns:xlink="http://www.w3.org/1999/xlink"><clipPath id="a"><path d="m0 0h83.9441v84h-83.9441z"/></clipPath><g clip-path="url(#a)"><path d="m67.8591 14.4095h-51.8298v47.1383h51.8298z" fill="#fff"/><path clip-rule="evenodd" d="m83.9161 42.0001c0 23.1653-18.7788 41.9441-41.9441 41.9441-23.1651 0-41.944168-18.7788-41.944168-41.9441 0-23.1652 18.779068-41.9441918 41.944168-41.9441918 23.1653 0 41.9441 18.7789918 41.9441 41.9441918zm-53.8299 16.6916h-8.1402c-1.7105 0-2.5554 0-3.0706-.3295-.5564-.3608-.8964-.9584-.9376-1.618-.031-.6077.3915-1.3498 1.2364-2.8336l20.0992-35.4275c.8552-1.5044 1.288-2.2566 1.8341-2.5348.5873-.2988 1.288-.2988 1.8753 0 .5461.2782.9789 1.0304 1.8341 2.5348l4.132 7.2129.0211.0368c.9237 1.6139 1.3921 2.4323 1.5966 3.2913.2267.9377.2267 1.9269 0 2.8646-.2061.8655-.6697 1.6899-1.6074 3.3282l-10.5576 18.6628-.0273.0478c-.9298 1.6272-1.401 2.452-2.0541 3.0741-.711.6803-1.5662 1.1746-2.5039 1.4533-.8553.2368-1.8135.2368-3.7301.2368zm20.5567 0h11.6639c1.7208 0 2.5865 0 3.102-.3396.5562-.3608.9064-.969.9377-1.628.0296-.5881-.3837-1.3014-1.1935-2.6989-.028-.0476-.0559-.096-.0844-.1453l-5.8425-9.9949-.0665-.1125c-.821-1.3884-1.2354-2.0895-1.7677-2.3604-.587-.2989-1.2779-.2989-1.8649 0-.5359.2781-.9686 1.0097-1.8238 2.4832l-5.8218 9.9949-.02.0344c-.8522 1.4712-1.2781 2.2063-1.2474 2.8095.0412.6596.3812 1.2673.9376 1.6281.505.3295 1.3705.3295 3.0913.3295z" fill="#e84142" fill-rule="evenodd"/></g></svg>